<svg width="1608" height="300" viewBox="0 0 1608 300" fill="none" xmlns="http://www.w3.org/2000/svg">
<rect width="300" height="300" rx="50" fill="#D9D9D9"/>
<path d="M215.65 59.9668L159.288 174.767C158.403 176.537 157.075 177.949 155.304 179C153.588 180.107 151.679 180.66 149.576 180.66C147.529 180.66 145.619 180.107 143.849 179C142.133 177.949 140.805 176.537 139.864 174.767L83.585 59.9668H107.74L149.576 145.714L191.578 59.9668H215.65Z" fill="black"/>
<path d="M215.65 120.967L159.288 235.767C158.403 237.537 157.075 238.949 155.304 240C153.588 241.107 151.679 241.66 149.576 241.66C147.529 241.66 145.619 241.107 143.849 240C142.133 238.949 140.805 237.537 139.864 235.767L83.585 120.967H107.74L149.576 206.714L191.578 120.967H215.65Z" fill="black"/>
<path d="M528.162 97.9707L478.431 199.265C477.649 200.827 476.478 202.072 474.915 203C473.401 203.977 471.717 204.465 469.861 204.465C468.055 204.465 466.37 203.977 464.808 203C463.294 202.072 462.122 200.827 461.292 199.265L411.634 97.9707H432.947L469.861 173.63L506.922 97.9707H528.162ZM556.141 107.565H537.098V90.3535H556.141V107.565ZM556.141 203H537.098V123.825H556.141V203ZM651.136 203H599.5C596.863 203 593.982 202.536 590.857 201.608C587.732 200.681 584.827 199.167 582.142 197.067C579.505 194.919 577.283 192.16 575.477 188.791C573.719 185.373 572.84 181.198 572.84 176.267V150.485C572.84 148.679 573.035 146.774 573.426 144.772C573.865 142.771 574.524 140.793 575.403 138.84C576.282 136.838 577.405 134.934 578.772 133.127C580.188 131.32 581.873 129.733 583.826 128.366C585.828 126.999 588.123 125.9 590.711 125.07C593.299 124.24 596.229 123.825 599.5 123.825H651.136V142.868H599.5C597.01 142.868 595.105 143.503 593.787 144.772C592.518 146.042 591.883 147.995 591.883 150.632V176.267C591.883 178.757 592.542 180.661 593.86 181.979C595.179 183.298 597.107 183.957 599.646 183.957H651.136V203ZM738.88 142.868H705.628V203H686.365V142.868H661.609V123.825H686.365V97.9707H705.628V123.825H738.88V142.868ZM837.244 176.267C837.244 179.538 836.829 182.492 835.999 185.129C835.169 187.717 834.07 190.012 832.703 192.014C831.336 193.967 829.749 195.651 827.942 197.067C826.136 198.435 824.231 199.558 822.229 200.437C820.276 201.315 818.274 201.975 816.224 202.414C814.222 202.805 812.317 203 810.511 203H776.16C773.523 203 770.643 202.536 767.518 201.608C764.393 200.681 761.487 199.167 758.802 197.067C756.165 194.919 753.943 192.16 752.137 188.791C750.379 185.373 749.5 181.198 749.5 176.267V150.485C749.5 145.603 750.379 141.477 752.137 138.107C753.943 134.689 756.165 131.931 758.802 129.831C761.487 127.683 764.393 126.145 767.518 125.217C770.643 124.289 773.523 123.825 776.16 123.825H810.511C815.394 123.825 819.544 124.704 822.962 126.462C826.38 128.22 829.139 130.441 831.238 133.127C833.338 135.764 834.852 138.645 835.779 141.77C836.756 144.895 837.244 147.8 837.244 150.485V176.267ZM818.201 150.632C818.201 147.995 817.542 146.042 816.224 144.772C814.905 143.503 813.001 142.868 810.511 142.868H776.307C773.768 142.868 771.839 143.527 770.521 144.846C769.202 146.115 768.543 147.995 768.543 150.485V176.267C768.543 178.757 769.202 180.661 770.521 181.979C771.839 183.298 773.768 183.957 776.307 183.957H810.511C813.099 183.957 815.027 183.298 816.297 181.979C817.566 180.661 818.201 178.757 818.201 176.267V150.632ZM922.791 142.868H879.944C877.356 142.868 875.403 143.527 874.085 144.846C872.767 146.115 872.107 147.995 872.107 150.485V203H853.064V150.485C853.064 147.214 853.479 144.284 854.31 141.696C855.14 139.108 856.238 136.838 857.605 134.885C859.021 132.883 860.633 131.198 862.439 129.831C864.246 128.415 866.126 127.268 868.079 126.389C870.081 125.51 872.083 124.875 874.085 124.484C876.136 124.045 878.04 123.825 879.798 123.825H922.791V142.868ZM1088.17 97.9707L1038.44 199.265C1037.66 200.827 1036.49 202.072 1034.92 203C1033.41 203.977 1031.73 204.465 1029.87 204.465C1028.06 204.465 1026.38 203.977 1024.82 203C1023.3 202.072 1022.13 200.827 1021.3 199.265L971.644 97.9707H992.957L1029.87 173.63L1066.93 97.9707H1088.17ZM1116.15 107.565H1097.11V90.3535H1116.15V107.565ZM1116.15 203H1097.11V123.825H1116.15V203ZM1221.33 176.267C1221.33 179.538 1220.91 182.492 1220.08 185.129C1219.25 187.717 1218.15 190.012 1216.79 192.014C1215.42 193.967 1213.83 195.651 1212.02 197.067C1210.22 198.435 1208.31 199.558 1206.31 200.437C1204.36 201.315 1202.36 201.975 1200.31 202.414C1198.3 202.805 1196.4 203 1194.59 203H1160.24C1156.97 203 1154.04 202.585 1151.45 201.755C1148.87 200.925 1146.57 199.826 1144.57 198.459C1142.62 197.043 1140.93 195.432 1139.51 193.625C1138.15 191.818 1137.02 189.938 1136.15 187.985C1135.27 185.983 1134.61 183.981 1134.17 181.979C1133.78 179.929 1133.58 178.024 1133.58 176.267V150.485C1133.58 145.603 1134.46 141.477 1136.22 138.107C1138.03 134.689 1140.25 131.931 1142.88 129.831C1145.57 127.683 1148.47 126.145 1151.6 125.217C1154.72 124.289 1157.61 123.825 1160.24 123.825H1194.59V142.868H1160.39C1157.85 142.868 1155.92 143.527 1154.6 144.846C1153.28 146.115 1152.62 147.995 1152.62 150.485V176.12C1152.62 178.708 1153.26 180.661 1154.53 181.979C1155.85 183.298 1157.75 183.957 1160.24 183.957H1194.59C1197.18 183.957 1199.11 183.298 1200.38 181.979C1201.65 180.661 1202.28 178.757 1202.28 176.267V90.3535H1221.33V176.267ZM1321.23 176.779C1321.23 179.416 1320.76 182.272 1319.84 185.349C1318.91 188.376 1317.4 191.208 1315.3 193.845C1313.25 196.433 1310.54 198.605 1307.17 200.363C1303.85 202.121 1299.79 203 1295.01 203H1260.66C1258.02 203 1255.16 202.536 1252.09 201.608C1249.06 200.681 1246.23 199.191 1243.59 197.141C1241 195.041 1238.83 192.331 1237.07 189.011C1235.32 185.642 1234.44 181.564 1234.44 176.779C1234.44 174.143 1234.9 171.286 1235.83 168.21C1236.76 165.134 1238.25 162.302 1240.3 159.714C1242.4 157.077 1245.11 154.88 1248.43 153.122C1251.79 151.364 1255.87 150.485 1260.66 150.485H1295.01V168.649H1260.66C1258.07 168.649 1256.07 169.455 1254.65 171.066C1253.24 172.629 1252.53 174.582 1252.53 176.926C1252.53 179.416 1253.33 181.369 1254.94 182.785C1256.6 184.152 1258.56 184.836 1260.8 184.836H1295.01C1297.6 184.836 1299.6 184.055 1301.01 182.492C1302.43 180.93 1303.14 178.977 1303.14 176.633V150.046C1303.14 147.556 1302.36 145.578 1300.79 144.113C1299.28 142.648 1297.35 141.916 1295.01 141.916H1253.19V123.825H1295.01C1297.64 123.825 1300.48 124.289 1303.5 125.217C1306.58 126.145 1309.41 127.658 1312 129.758C1314.64 131.809 1316.83 134.519 1318.59 137.888C1320.35 141.208 1321.23 145.261 1321.23 150.046V176.779ZM1372.28 203H1363.78C1361.05 203 1358.12 202.536 1354.99 201.608C1351.92 200.681 1349.04 199.167 1346.35 197.067C1343.67 194.919 1341.44 192.16 1339.69 188.791C1337.93 185.373 1337.05 181.198 1337.05 176.267V90.3535H1356.09V176.267C1356.09 178.61 1356.82 180.49 1358.29 181.906C1359.75 183.273 1361.58 183.957 1363.78 183.957H1372.28V203ZM1470.64 176.267C1470.64 179.538 1470.23 182.492 1469.4 185.129C1468.57 187.717 1467.47 190.012 1466.1 192.014C1464.73 193.967 1463.15 195.651 1461.34 197.067C1459.53 198.435 1457.63 199.558 1455.63 200.437C1453.67 201.315 1451.67 201.975 1449.62 202.414C1447.62 202.805 1445.72 203 1443.91 203H1409.56C1406.92 203 1404.04 202.536 1400.92 201.608C1397.79 200.681 1394.89 199.167 1392.2 197.067C1389.56 194.919 1387.34 192.16 1385.54 188.791C1383.78 185.373 1382.9 181.198 1382.9 176.267V150.485C1382.9 145.603 1383.78 141.477 1385.54 138.107C1387.34 134.689 1389.56 131.931 1392.2 129.831C1394.89 127.683 1397.79 126.145 1400.92 125.217C1404.04 124.289 1406.92 123.825 1409.56 123.825H1443.91C1448.79 123.825 1452.94 124.704 1456.36 126.462C1459.78 128.22 1462.54 130.441 1464.64 133.127C1466.74 135.764 1468.25 138.645 1469.18 141.77C1470.15 144.895 1470.64 147.8 1470.64 150.485V176.267ZM1451.6 150.632C1451.6 147.995 1450.94 146.042 1449.62 144.772C1448.3 143.503 1446.4 142.868 1443.91 142.868H1409.71C1407.17 142.868 1405.24 143.527 1403.92 144.846C1402.6 146.115 1401.94 147.995 1401.94 150.485V176.267C1401.94 178.757 1402.6 180.661 1403.92 181.979C1405.24 183.298 1407.17 183.957 1409.71 183.957H1443.91C1446.5 183.957 1448.43 183.298 1449.7 181.979C1450.96 180.661 1451.6 178.757 1451.6 176.267V150.632ZM1558.46 142.868H1525.21V203H1505.95V142.868H1481.19V123.825H1505.95V97.9707H1525.21V123.825H1558.46V142.868Z" fill="white"/>
</svg>
